<mxfile host="app.diagrams.net" agent="Mozilla/5.0 (Windows NT 10.0; Win64; x64) AppleWebKit/537.36 (KHTML, like Gecko) Chrome/137.0.0.0 Safari/537.36 Edg/137.0.0.0" version="27.1.4">
  <diagram name="Seite-1" id="G0D-4hv1lFhD8uAsBul1">
    <mxGraphModel dx="1149" dy="671" grid="1" gridSize="10" guides="1" tooltips="1" connect="1" arrows="1" fold="1" page="1" pageScale="1" pageWidth="827" pageHeight="1169" background="light-dark(#FFFFFF,#FFFFFF)" math="0" shadow="0">
      <root>
        <mxCell id="0" />
        <mxCell id="1" parent="0" />
        <mxCell id="cTbPSMrbRQUBVLo8CjmU-2" value="" style="rounded=0;whiteSpace=wrap;html=1;labelBackgroundColor=none;strokeWidth=2;fillStyle=auto;fillColor=#F0A854;strokeColor=#BD7000;fontColor=#000000;" parent="1" vertex="1">
          <mxGeometry x="80" y="70" width="750" height="580" as="geometry" />
        </mxCell>
        <mxCell id="0ruG5mBAyBtoK57i9J37-1" value="" style="rounded=0;whiteSpace=wrap;html=1;fillColor=#1ba1e2;strokeColor=#006EAF;fontColor=#ffffff;" parent="1" vertex="1">
          <mxGeometry x="90" y="400" width="430" height="215" as="geometry" />
        </mxCell>
        <mxCell id="0ruG5mBAyBtoK57i9J37-6" value="" style="rounded=0;whiteSpace=wrap;html=1;fillColor=#dae8fc;strokeColor=#6c8ebf;" parent="1" vertex="1">
          <mxGeometry x="300" y="410" width="200" height="190" as="geometry" />
        </mxCell>
        <mxCell id="cTbPSMrbRQUBVLo8CjmU-3" value="AWS Privat Network 172.31.80.0/20&lt;br&gt;Domain: M158.local" style="text;html=1;align=center;verticalAlign=middle;whiteSpace=wrap;rounded=0;fontColor=light-dark(#0B0B0B,#EDEDED);fontSize=20;" parent="1" vertex="1">
          <mxGeometry x="80" y="70" width="330" height="80" as="geometry" />
        </mxCell>
        <mxCell id="cTbPSMrbRQUBVLo8CjmU-4" value="" style="rounded=0;whiteSpace=wrap;html=1;labelBackgroundColor=none;strokeWidth=2;fillStyle=auto;fillColor=#ffe6cc;strokeColor=#d79b00;" parent="1" vertex="1">
          <mxGeometry x="120" y="160" width="200" height="160" as="geometry" />
        </mxCell>
        <mxCell id="0ruG5mBAyBtoK57i9J37-7" value="" style="rounded=0;whiteSpace=wrap;html=1;fillColor=#dae8fc;strokeColor=#6c8ebf;" parent="1" vertex="1">
          <mxGeometry x="110" y="470" width="180" height="120" as="geometry" />
        </mxCell>
        <mxCell id="cTbPSMrbRQUBVLo8CjmU-6" value="" style="shape=image;verticalLabelPosition=bottom;labelBackgroundColor=default;verticalAlign=top;aspect=fixed;imageAspect=0;image=https://cdn-icons-png.flaticon.com/512/11494/11494073.png;" parent="1" vertex="1">
          <mxGeometry x="248" y="160.63" width="52" height="52" as="geometry" />
        </mxCell>
        <mxCell id="cTbPSMrbRQUBVLo8CjmU-8" value="&lt;h1 style=&quot;margin-top: 0px;&quot;&gt;&lt;font style=&quot;font-size: 22px;&quot;&gt;Webserver&lt;/font&gt;&lt;/h1&gt;&lt;p&gt;FQDN:&lt;span style=&quot;white-space: pre;&quot;&gt;&#x9;&lt;span style=&quot;white-space: pre;&quot;&gt;&#x9;&lt;/span&gt;w&lt;/span&gt;ebserver.m158.local&lt;br&gt;Local-IP:&lt;span style=&quot;white-space: pre;&quot;&gt;&#x9;&lt;/span&gt;&lt;span style=&quot;white-space: pre;&quot;&gt;&#x9;&lt;/span&gt;172.31.85.30&lt;br&gt;Elastic-IP:&lt;span style=&quot;white-space: pre;&quot;&gt;&#x9;&lt;/span&gt;52.71.160.247&lt;br&gt;Gateway:&lt;span style=&quot;white-space: pre;&quot;&gt;&#x9;&lt;/span&gt;&lt;span style=&quot;white-space: pre;&quot;&gt;&#x9;&lt;/span&gt;172.31.80.1&lt;br&gt;SSH:&lt;span style=&quot;white-space: pre;&quot;&gt;&#x9;&lt;/span&gt;&lt;span style=&quot;white-space: pre;&quot;&gt;&#x9;&lt;/span&gt;Yes&lt;br&gt;OS:&lt;span style=&quot;white-space: pre;&quot;&gt;&#x9;&lt;/span&gt;&lt;span style=&quot;white-space: pre;&quot;&gt;&#x9;&lt;/span&gt;&lt;span style=&quot;white-space: pre;&quot;&gt;&#x9;&lt;/span&gt;Ubuntu&lt;/p&gt;" style="text;html=1;whiteSpace=wrap;overflow=hidden;rounded=0;" parent="1" vertex="1">
          <mxGeometry x="120" y="160" width="200" height="160" as="geometry" />
        </mxCell>
        <mxCell id="J6C9ZnM7U1KPytewlVYR-5" style="edgeStyle=orthogonalEdgeStyle;rounded=0;orthogonalLoop=1;jettySize=auto;html=1;entryX=1;entryY=0.5;entryDx=0;entryDy=0;exitX=0;exitY=0.25;exitDx=0;exitDy=0;" parent="1" target="cTbPSMrbRQUBVLo8CjmU-9" edge="1">
          <mxGeometry relative="1" as="geometry">
            <Array as="points">
              <mxPoint x="790" y="425" />
              <mxPoint x="790" y="220" />
            </Array>
            <mxPoint x="885" y="425" as="sourcePoint" />
          </mxGeometry>
        </mxCell>
        <mxCell id="J6C9ZnM7U1KPytewlVYR-14" value="DNS Port 53" style="edgeLabel;html=1;align=center;verticalAlign=middle;resizable=0;points=[];" parent="J6C9ZnM7U1KPytewlVYR-5" vertex="1" connectable="0">
          <mxGeometry x="-0.3079" y="-2" relative="1" as="geometry">
            <mxPoint x="-42" y="-176" as="offset" />
          </mxGeometry>
        </mxCell>
        <mxCell id="cTbPSMrbRQUBVLo8CjmU-13" value="" style="shape=image;verticalLabelPosition=bottom;labelBackgroundColor=default;verticalAlign=top;aspect=fixed;imageAspect=0;image=https://images.velog.io/images/nari120/post/b14b4105-a561-4cc3-bc9f-87a5ee4eb1b6/aws.png;" parent="1" vertex="1">
          <mxGeometry x="590" y="489.05" width="185" height="138.75" as="geometry" />
        </mxCell>
        <mxCell id="J6C9ZnM7U1KPytewlVYR-3" style="edgeStyle=orthogonalEdgeStyle;rounded=0;orthogonalLoop=1;jettySize=auto;html=1;exitX=0;exitY=0.25;exitDx=0;exitDy=0;" parent="1" edge="1">
          <mxGeometry relative="1" as="geometry">
            <Array as="points">
              <mxPoint x="790" y="425" />
              <mxPoint x="790" y="310" />
            </Array>
            <mxPoint x="885" y="425" as="sourcePoint" />
            <mxPoint x="320" y="310" as="targetPoint" />
          </mxGeometry>
        </mxCell>
        <mxCell id="J6C9ZnM7U1KPytewlVYR-17" value="HTTP/S&lt;div&gt;Port: 443&lt;/div&gt;" style="edgeLabel;html=1;align=center;verticalAlign=middle;resizable=0;points=[];" parent="J6C9ZnM7U1KPytewlVYR-3" vertex="1" connectable="0">
          <mxGeometry x="0.223" y="2" relative="1" as="geometry">
            <mxPoint x="-34" y="18" as="offset" />
          </mxGeometry>
        </mxCell>
        <mxCell id="cTbPSMrbRQUBVLo8CjmU-15" value="" style="sketch=0;pointerEvents=1;shadow=0;dashed=0;html=1;strokeColor=none;fillColor=#505050;labelPosition=center;verticalLabelPosition=bottom;verticalAlign=top;outlineConnect=0;align=center;shape=mxgraph.office.devices.laptop;" parent="1" vertex="1">
          <mxGeometry x="890" y="370" width="126.58" height="74.2" as="geometry" />
        </mxCell>
        <mxCell id="J6C9ZnM7U1KPytewlVYR-2" value="&lt;h1 style=&quot;margin-top: 0px;&quot;&gt;&lt;span style=&quot;font-size: 22px;&quot;&gt;Client&lt;/span&gt;&lt;/h1&gt;&lt;p&gt;DNS-Config: 4&lt;span style=&quot;background-color: transparent; color: light-dark(rgb(0, 0, 0), rgb(255, 255, 255));&quot;&gt;4.214.124.124:53&lt;/span&gt;&lt;/p&gt;&lt;p&gt;&lt;br&gt;&lt;/p&gt;&lt;p&gt;&lt;br&gt;&lt;/p&gt;" style="text;html=1;whiteSpace=wrap;overflow=hidden;rounded=0;" parent="1" vertex="1">
          <mxGeometry x="890" y="458" width="190" height="112" as="geometry" />
        </mxCell>
        <mxCell id="J6C9ZnM7U1KPytewlVYR-7" style="edgeStyle=orthogonalEdgeStyle;rounded=0;orthogonalLoop=1;jettySize=auto;html=1;entryX=0;entryY=0;entryDx=0;entryDy=27.5;entryPerimeter=0;" parent="1" source="cTbPSMrbRQUBVLo8CjmU-4" target="J6C9ZnM7U1KPytewlVYR-6" edge="1">
          <mxGeometry relative="1" as="geometry">
            <Array as="points">
              <mxPoint x="270" y="445" />
            </Array>
          </mxGeometry>
        </mxCell>
        <mxCell id="J6C9ZnM7U1KPytewlVYR-21" style="edgeStyle=orthogonalEdgeStyle;rounded=0;orthogonalLoop=1;jettySize=auto;html=1;entryX=0.5;entryY=0;entryDx=0;entryDy=0;" parent="1" source="J6C9ZnM7U1KPytewlVYR-18" target="cTbPSMrbRQUBVLo8CjmU-10" edge="1">
          <mxGeometry relative="1" as="geometry" />
        </mxCell>
        <mxCell id="J6C9ZnM7U1KPytewlVYR-22" style="edgeStyle=orthogonalEdgeStyle;rounded=0;orthogonalLoop=1;jettySize=auto;html=1;entryX=0.5;entryY=0;entryDx=0;entryDy=0;" parent="1" source="J6C9ZnM7U1KPytewlVYR-18" target="cTbPSMrbRQUBVLo8CjmU-8" edge="1">
          <mxGeometry relative="1" as="geometry" />
        </mxCell>
        <mxCell id="J6C9ZnM7U1KPytewlVYR-23" value="&lt;span&gt;SSH&amp;nbsp;&lt;br&gt;Port 22&lt;/span&gt;" style="edgeLabel;html=1;align=center;verticalAlign=middle;resizable=0;points=[];" parent="J6C9ZnM7U1KPytewlVYR-22" vertex="1" connectable="0">
          <mxGeometry x="-0.5616" y="3" relative="1" as="geometry">
            <mxPoint y="-25" as="offset" />
          </mxGeometry>
        </mxCell>
        <mxCell id="J6C9ZnM7U1KPytewlVYR-18" value="" style="sketch=0;pointerEvents=1;shadow=0;dashed=0;html=1;strokeColor=none;fillColor=#505050;labelPosition=center;verticalLabelPosition=bottom;verticalAlign=top;outlineConnect=0;align=center;shape=mxgraph.office.devices.laptop;" parent="1" vertex="1">
          <mxGeometry x="876.65" y="80" width="176.65" height="103.55" as="geometry" />
        </mxCell>
        <mxCell id="J6C9ZnM7U1KPytewlVYR-19" value="&lt;h1 style=&quot;margin-top: 0px;&quot;&gt;&lt;span style=&quot;font-size: 22px;&quot;&gt;Admin&lt;br&gt;&lt;/span&gt;&lt;/h1&gt;&lt;p&gt;Name:&amp;nbsp;&lt;span style=&quot;white-space: pre;&quot;&gt;&#x9;&lt;/span&gt;&lt;span style=&quot;white-space: pre;&quot;&gt;&#x9;&lt;/span&gt;Personal Laptop&lt;br&gt;Local-IP:&lt;span style=&quot;white-space: pre;&quot;&gt;&#x9;&lt;/span&gt;&lt;span style=&quot;white-space: pre;&quot;&gt;&#x9;&lt;/span&gt;N/A&lt;br&gt;Elastic-IP:&lt;span style=&quot;white-space: pre;&quot;&gt;&#x9;&lt;/span&gt;-&lt;br&gt;&lt;span style=&quot;background-color: transparent; color: light-dark(rgb(0, 0, 0), rgb(255, 255, 255));&quot;&gt;Gateway:&lt;/span&gt;&lt;span style=&quot;background-color: transparent; color: light-dark(rgb(0, 0, 0), rgb(255, 255, 255)); white-space: pre;&quot;&gt;&#x9;&lt;/span&gt;&lt;span style=&quot;background-color: transparent; color: light-dark(rgb(0, 0, 0), rgb(255, 255, 255)); white-space: pre;&quot;&gt;&#x9;&lt;/span&gt;N/A&lt;/p&gt;&lt;p&gt;&lt;br&gt;&lt;/p&gt;" style="text;html=1;whiteSpace=wrap;overflow=hidden;rounded=0;" parent="1" vertex="1">
          <mxGeometry x="879.98" y="199.9" width="170" height="135" as="geometry" />
        </mxCell>
        <mxCell id="J6C9ZnM7U1KPytewlVYR-6" value="" style="shape=cylinder3;whiteSpace=wrap;html=1;boundedLbl=1;backgroundOutline=1;size=15;" parent="1" vertex="1">
          <mxGeometry x="410" y="417.8" width="60" height="80" as="geometry" />
        </mxCell>
        <mxCell id="J6C9ZnM7U1KPytewlVYR-8" value="&lt;h1 style=&quot;margin-top: 0px;&quot;&gt;&lt;font style=&quot;font-size: 22px;&quot;&gt;Database&lt;/font&gt;&lt;/h1&gt;&lt;p&gt;DB-Name: wordpress&lt;br&gt;DB-Server&lt;span style=&quot;white-space: pre;&quot;&gt;&#x9;&lt;/span&gt;localhost:3306&lt;br&gt;DB-User&lt;span style=&quot;white-space: pre;&quot;&gt;&#x9;&lt;/span&gt;&lt;span style=&quot;white-space: pre;&quot;&gt;&#x9;&lt;/span&gt;M158&lt;br&gt;DB-Pass&lt;span style=&quot;white-space: pre;&quot;&gt;&#x9;&lt;/span&gt;&lt;span style=&quot;white-space: pre;&quot;&gt;&#x9;&lt;/span&gt;M158-1234&lt;/p&gt;&lt;p&gt;&lt;br&gt;&lt;/p&gt;" style="text;html=1;whiteSpace=wrap;overflow=hidden;rounded=0;" parent="1" vertex="1">
          <mxGeometry x="320" y="479.35" width="160" height="130" as="geometry" />
        </mxCell>
        <mxCell id="J6C9ZnM7U1KPytewlVYR-11" value="&lt;h1 style=&quot;margin-top: 0px;&quot;&gt;&lt;span style=&quot;background-color: transparent; color: light-dark(rgb(0, 0, 0), rgb(255, 255, 255)); font-size: 22px;&quot;&gt;Apache Webserver&lt;/span&gt;&lt;/h1&gt;&lt;div&gt;&lt;span style=&quot;background-color: transparent; color: light-dark(rgb(0, 0, 0), rgb(255, 255, 255));&quot;&gt;RootPath: /var/www/html/&lt;/span&gt;&lt;/div&gt;" style="text;html=1;whiteSpace=wrap;overflow=hidden;rounded=0;" parent="1" vertex="1">
          <mxGeometry x="140" y="479.35" width="140" height="120.65" as="geometry" />
        </mxCell>
        <mxCell id="0ruG5mBAyBtoK57i9J37-2" value="" style="shape=image;html=1;verticalAlign=top;verticalLabelPosition=bottom;labelBackgroundColor=#ffffff;imageAspect=0;aspect=fixed;image=https://cdn1.iconfinder.com/data/icons/ionicons-fill-vol-2/512/logo-docker-128.png" parent="1" vertex="1">
          <mxGeometry x="110" y="400" width="58" height="58" as="geometry" />
        </mxCell>
        <mxCell id="0ruG5mBAyBtoK57i9J37-9" style="edgeStyle=orthogonalEdgeStyle;rounded=0;orthogonalLoop=1;jettySize=auto;html=1;entryX=0.563;entryY=-0.028;entryDx=0;entryDy=0;entryPerimeter=0;" parent="1" source="cTbPSMrbRQUBVLo8CjmU-4" target="0ruG5mBAyBtoK57i9J37-7" edge="1">
          <mxGeometry relative="1" as="geometry">
            <Array as="points">
              <mxPoint x="211" y="360" />
              <mxPoint x="211" y="360" />
            </Array>
          </mxGeometry>
        </mxCell>
        <mxCell id="0ruG5mBAyBtoK57i9J37-11" style="edgeStyle=orthogonalEdgeStyle;rounded=0;orthogonalLoop=1;jettySize=auto;html=1;exitX=0.855;exitY=1;exitDx=0;exitDy=-4.35;exitPerimeter=0;entryX=1;entryY=1;entryDx=0;entryDy=-15;entryPerimeter=0;" parent="1" source="J6C9ZnM7U1KPytewlVYR-6" target="J6C9ZnM7U1KPytewlVYR-6" edge="1">
          <mxGeometry relative="1" as="geometry" />
        </mxCell>
        <mxCell id="0ruG5mBAyBtoK57i9J37-14" value="" style="group" parent="1" vertex="1" connectable="0">
          <mxGeometry x="450" y="150" width="220" height="200" as="geometry" />
        </mxCell>
        <mxCell id="cTbPSMrbRQUBVLo8CjmU-9" value="&lt;span style=&quot;color: rgba(0, 0, 0, 0); font-family: monospace; font-size: 0px; text-align: start; text-wrap-mode: nowrap;&quot;&gt;%3CmxGraphModel%3E%3Croot%3E%3CmxCell%20id%3D%220%22%2F%3E%3CmxCell%20id%3D%221%22%20parent%3D%220%22%2F%3E%3CmxCell%20id%3D%222%22%20value%3D%22%22%20style%3D%22rounded%3D0%3BwhiteSpace%3Dwrap%3Bhtml%3D1%3BfillColor%3D%23dae8fc%3BstrokeColor%3D%236c8ebf%3B%22%20vertex%3D%221%22%20parent%3D%221%22%3E%3CmxGeometry%20x%3D%2290%22%20y%3D%22400%22%20width%3D%22430%22%20height%3D%22215%22%20as%3D%22geometry%22%2F%3E%3C%2FmxCell%3E%3C%2Froot%3E%3C%2FmxGraphModel%3E&lt;/span&gt;" style="rounded=0;whiteSpace=wrap;html=1;labelBackgroundColor=none;strokeWidth=2;fillStyle=auto;fillColor=#ffe6cc;strokeColor=#d79b00;" parent="0ruG5mBAyBtoK57i9J37-14" vertex="1">
          <mxGeometry width="220" height="140" as="geometry" />
        </mxCell>
        <mxCell id="cTbPSMrbRQUBVLo8CjmU-10" value="&lt;h1 style=&quot;margin-top: 0px;&quot;&gt;&lt;font style=&quot;font-size: 22px;&quot;&gt;DNS Server&lt;/font&gt;&lt;/h1&gt;&lt;p&gt;FQDN:&lt;span style=&quot;white-space: pre;&quot;&gt;&#x9;&lt;span style=&quot;white-space: pre;&quot;&gt;&#x9;&lt;/span&gt;dnsserver.m158.local&lt;/span&gt;&lt;br&gt;Local-IP:&lt;span style=&quot;white-space: pre;&quot;&gt;&#x9;&lt;/span&gt;&lt;span style=&quot;white-space: pre;&quot;&gt;&#x9;&lt;/span&gt;172.31.95.31&lt;br&gt;Elastic-IP:&lt;span style=&quot;white-space: pre;&quot;&gt;&#x9;&lt;/span&gt;44.214.124.124&lt;br&gt;&lt;span style=&quot;background-color: transparent; color: light-dark(rgb(0, 0, 0), rgb(255, 255, 255));&quot;&gt;Gateway:&lt;/span&gt;&lt;span style=&quot;background-color: transparent; color: light-dark(rgb(0, 0, 0), rgb(255, 255, 255)); white-space: pre;&quot;&gt;&#x9;&lt;/span&gt;&lt;span style=&quot;background-color: transparent; color: light-dark(rgb(0, 0, 0), rgb(255, 255, 255)); white-space: pre;&quot;&gt;&#x9;&lt;/span&gt;&lt;span style=&quot;background-color: transparent; color: light-dark(rgb(0, 0, 0), rgb(255, 255, 255));&quot;&gt;172.31.80.1&lt;br&gt;OS:&amp;nbsp;&lt;span style=&quot;white-space: pre;&quot;&gt;&#x9;&lt;/span&gt;&lt;span style=&quot;white-space: pre;&quot;&gt;&#x9;&lt;/span&gt;&lt;span style=&quot;white-space: pre;&quot;&gt;&#x9;&lt;/span&gt;Ubuntu&lt;/span&gt;&lt;/p&gt;&lt;p&gt;&lt;br&gt;&lt;/p&gt;" style="text;html=1;whiteSpace=wrap;overflow=hidden;rounded=0;" parent="0ruG5mBAyBtoK57i9J37-14" vertex="1">
          <mxGeometry x="2.5" y="5" width="207.5" height="130" as="geometry" />
        </mxCell>
        <mxCell id="cTbPSMrbRQUBVLo8CjmU-14" value="" style="shape=image;verticalLabelPosition=bottom;labelBackgroundColor=default;verticalAlign=top;aspect=fixed;imageAspect=0;image=https://icon-library.com/images/cisco-router-icon/cisco-router-icon-7.jpg;" parent="0ruG5mBAyBtoK57i9J37-14" vertex="1">
          <mxGeometry x="122.5" y="10" width="60" height="39.9" as="geometry" />
        </mxCell>
      </root>
    </mxGraphModel>
  </diagram>
</mxfile>
